# xmcd
#
# Track frame offsets: 
#        150
#        19027
#        32445
#        47282
#        62170
#        76410
#        90245
#        105902
#        120735
#        138462
#        152890
#        166917
#        180740
#        196510
#        211902
#        237517
#        253725
#        272025
#        289095
#        307622
#
# Disc length: 4357 seconds
#
# Revision: 0
# Processed by: cddbd v1.5.1PL0 Copyright (c) Steve Scherf et al.
# Submitted via: ExactAudioCopy v0.95a3
#
DISCID=fa110314
DTITLE=Tracy Nelson - Home Made Songs and Come See About Me
DYEAR=1900
DGENRE=Blues
TTITLE0=God's Song
TTITLE1=I've Been There Before
TTITLE2=Ice Man
TTITLE3=The summer of the Silver Comet
TTITLE4=Tightrope
TTITLE5=You Don' Need to Move A Mountain
TTITLE6=She's Taking my Part
TTITLE7=Friends of a Kind
TTITLE8=Sounds of the City
TTITLE9=Suddenly
TTITLE10=Come See About Me
TTITLE11=Done Got Over
TTITLE12=Holiday
TTITLE13=It's Growing
TTITLE14=Walk Away
TTITLE15=Tears
TTITLE16=Hold On I'm Coming
TTITLE17=See Saw
TTITLE18=River's Invitation
TTITLE19=You're My World
EXTD=
EXTT0=
EXTT1=
EXTT2=
EXTT3=
EXTT4=
EXTT5=
EXTT6=
EXTT7=
EXTT8=
EXTT9=
EXTT10=
EXTT11=
EXTT12=
EXTT13=
EXTT14=
EXTT15=
EXTT16=
EXTT17=
EXTT18=
EXTT19=
PLAYORDER=
